STARTFONT 2.1
COMMENT This font was automatically resized by bdfresize-1.4
COMMENT   mag_x = 9/24, mag_y = 9/24, blackness = 4
FONT -tomabechi-proportional-medium-r-normal--9-90-72-72-P-84-MuleTibetan-2
SIZE 1 72 72
FONTBOUNDINGBOX 23 20 -4 -8
STARTPROPERTIES 26
FOUNDRY "tomabechi"
FAMILY_NAME "proportional"
WEIGHT_NAME "medium"
SLANT "r"
SETWIDTH_NAME "normal"
ADD_STYLE_NAME ""
PIXEL_SIZE 9
POINT_SIZE 90
RESOLUTION_X 72
RESOLUTION_Y 72
SPACING "P"
AVERAGE_WIDTH 84
CHARSET_REGISTRY "MuleTibetan"
CHARSET_ENCODING "2"
STRIKEOUT_ASCENT 12
STRIKEOUT_DESCENT 7
X_HEIGHT 7
FACE_NAME "Mule Tibetan (9 point)"
COPYRIGHT "Public Domain, original design by Toru Tomabechi 1999"
_XMBDFED_INFO "Edited with xmbdfed 4.3."
WEIGHT 10
RESOLUTION 72
QUAD_WIDTH 9
DEFAULT_CHAR 8481
FONT_ASCENT 12
FONT_DESCENT 6
ENDPROPERTIES
CHARS 349
STARTCHAR char8481
ENCODING 8481
SWIDTH 9000 0
DWIDTH 9 0
BBX 8 7 0 1
BITMAP
FF
81
81
81
81
81
FF
ENDCHAR
STARTCHAR char9040
ENCODING 8482
SWIDTH 7000 0
DWIDTH 7 0
BBX 5 2 2 5
BITMAP
F8
20
ENDCHAR
STARTCHAR char105
ENCODING 8496
SWIDTH 9000 0
DWIDTH 9 0
BBX 9 13 0 -1
BITMAP
1000
2880
1700
E800
1000
5B00
4900
5D00
5500
4B00
4B00
3100
0100
ENDCHAR
STARTCHAR char105
ENCODING 8497
SWIDTH 8000 0
DWIDTH 8 0
BBX 7 8 1 -1
BITMAP
B0
90
B8
A8
94
94
62
02
ENDCHAR
STARTCHAR char8498
ENCODING 8498
SWIDTH 10000 0
DWIDTH 10 0
BBX 9 15 1 -3
BITMAP
2000
5000
2000
8800
7100
0280
7100
8800
8900
B280
3900
0400
E600
1100
0E00
ENDCHAR
STARTCHAR char8498
ENCODING 8499
SWIDTH 10000 0
DWIDTH 10 0
BBX 9 15 1 -3
BITMAP
2000
5000
2100
8A80
7100
0000
7380
8800
8900
B280
3900
0400
E600
1100
0E00
ENDCHAR
STARTCHAR char8500
ENCODING 8500
SWIDTH 12000 0
DWIDTH 12 0
BBX 12 9 1 -2
BITMAP
00E0
E1F0
1110
0C10
03F0
05E0
0210
01E0
00C0
ENDCHAR
STARTCHAR char8500
ENCODING 8501
SWIDTH 7000 0
DWIDTH 7 0
BBX 7 9 0 -2
BITMAP
1C
3E
22
82
7E
BC
42
3C
18
ENDCHAR
STARTCHAR char8500
ENCODING 8502
SWIDTH 12000 0
DWIDTH 12 0
BBX 12 14 1 -7
BITMAP
00E0
E1F0
1110
0C10
03F0
05E0
0210
01E0
00C0
0000
00E0
0040
0040
0040
ENDCHAR
STARTCHAR char8500
ENCODING 8503
SWIDTH 19000 0
DWIDTH 19 0
BBX 18 8 1 -1
BITMAP
00E440
E1F540
111540
0C1440
03F440
01E540
000540
000440
ENDCHAR
STARTCHAR char8504
ENCODING 8504
SWIDTH 7000 0
DWIDTH 7 0
BBX 5 14 1 -6
BITMAP
48
A8
A8
10
88
50
A8
50
20
20
20
20
20
20
ENDCHAR
STARTCHAR char8505
ENCODING 8505
SWIDTH 9000 0
DWIDTH 9 0
BBX 7 11 1 -4
BITMAP
78
8C
8C
18
70
98
0C
72
98
04
02
ENDCHAR
STARTCHAR char8505
ENCODING 8506
SWIDTH 13000 0
DWIDTH 13 0
BBX 11 15 1 -6
BITMAP
4000
8000
9E00
A300
A300
8600
9C00
A600
8300
9C80
A600
8100
80A0
4020
3FC0
ENDCHAR
STARTCHAR char58
ENCODING 8507
SWIDTH 5000 0
DWIDTH 5 0
BBX 3 2 1 5
BITMAP
E0
40
ENDCHAR
STARTCHAR char58
ENCODING 8508
SWIDTH 5000 0
DWIDTH 5 0
BBX 3 2 1 5
BITMAP
E0
40
ENDCHAR
STARTCHAR char59
ENCODING 8509
SWIDTH 4000 0
DWIDTH 4 0
BBX 2 13 1 -6
BITMAP
C0
C0
C0
40
40
40
40
40
40
40
40
40
40
ENDCHAR
STARTCHAR char59
ENCODING 8510
SWIDTH 8000 0
DWIDTH 8 0
BBX 6 13 1 -6
BITMAP
CC
CC
CC
44
44
44
44
44
44
44
44
44
44
ENDCHAR
STARTCHAR char59
ENCODING 8511
SWIDTH 5000 0
DWIDTH 5 0
BBX 3 13 1 -6
BITMAP
E0
40
00
40
40
40
40
40
40
40
40
40
40
ENDCHAR
STARTCHAR char59
ENCODING 8512
SWIDTH 5000 0
DWIDTH 5 0
BBX 3 13 1 -6
BITMAP
E0
40
00
40
00
40
40
40
40
40
40
40
40
ENDCHAR
STARTCHAR char59
ENCODING 8513
SWIDTH 7000 0
DWIDTH 7 0
BBX 5 13 1 -6
BITMAP
D8
50
20
20
00
20
20
20
20
20
20
20
20
ENDCHAR
STARTCHAR char8514
ENCODING 8514
SWIDTH 13000 0
DWIDTH 13 0
BBX 11 17 1 -8
BITMAP
0400
0400
0800
0A00
0400
1100
0E00
0000
D560
5540
0000
0E00
0400
0400
0400
0400
0400
ENDCHAR
STARTCHAR char8515
ENCODING 8515
SWIDTH 15000 0
DWIDTH 15 0
BBX 14 14 1 -7
BITMAP
0300
0300
0000
0780
0840
1020
D02C
D02C
1020
0840
0780
0000
0300
0300
ENDCHAR
STARTCHAR char64
ENCODING 8516
SWIDTH 5000 0
DWIDTH 5 0
BBX 3 9 1 -2
BITMAP
40
A0
40
00
E0
00
40
A0
40
ENDCHAR
STARTCHAR char8517
ENCODING 8517
SWIDTH 11000 0
DWIDTH 11 0
BBX 9 13 1 -6
BITMAP
FF80
8080
F780
8080
B680
8080
FF80
8080
6080
1380
0880
0680
0180
ENDCHAR
STARTCHAR char8518
ENCODING 8518
SWIDTH 10000 0
DWIDTH 10 0
BBX 8 17 1 -8
BITMAP
FD
85
BD
A1
BF
83
F7
15
F5
85
FD
01
FF
11
FF
83
FF
ENDCHAR
STARTCHAR char8519
ENCODING 8519
SWIDTH 12000 0
DWIDTH 12 0
BBX 10 8 1 -1
BITMAP
0200
1440
2480
AF00
BD00
5500
5E00
F800
ENDCHAR
STARTCHAR char8520
ENCODING 8520
SWIDTH 6000 0
DWIDTH 6 0
BBX 10 7 -4 -4
BITMAP
0240
0540
1280
2A00
1400
2000
C000
ENDCHAR
STARTCHAR char8521
ENCODING 8521
SWIDTH 8000 0
DWIDTH 8 0
BBX 3 7 3 -4
BITMAP
E0
40
40
40
40
40
40
ENDCHAR
STARTCHAR char8522
ENCODING 8522
SWIDTH 8000 0
DWIDTH 8 0
BBX 3 3 3 3
BITMAP
40
A0
40
ENDCHAR
STARTCHAR char8523
ENCODING 8523
SWIDTH 10000 0
DWIDTH 10 0
BBX 8 3 1 3
BITMAP
42
A5
42
ENDCHAR
STARTCHAR char8524
ENCODING 8524
SWIDTH 10000 0
DWIDTH 10 0
BBX 7 7 2 0
BITMAP
10
28
10
00
44
AA
44
ENDCHAR
STARTCHAR char8526
ENCODING 8525
SWIDTH 8000 0
DWIDTH 8 0
BBX 4 4 2 3
BITMAP
90
60
60
90
ENDCHAR
STARTCHAR char8526
ENCODING 8526
SWIDTH 11000 0
DWIDTH 11 0
BBX 9 4 1 3
BITMAP
9480
6300
6300
9480
ENDCHAR
STARTCHAR char8527
ENCODING 8527
SWIDTH 10000 0
DWIDTH 10 0
BBX 8 4 1 3
BITMAP
69
96
96
69
ENDCHAR
STARTCHAR char48
ENCODING 8528
SWIDTH 8000 0
DWIDTH 8 0
BBX 5 6 1 1
BITMAP
70
D8
88
88
D8
70
ENDCHAR
STARTCHAR char49
ENCODING 8529
SWIDTH 7000 0
DWIDTH 7 0
BBX 5 8 1 -1
BITMAP
70
D8
88
08
18
10
20
40
ENDCHAR
STARTCHAR char50
ENCODING 8530
SWIDTH 8000 0
DWIDTH 8 0
BBX 6 9 1 -2
BITMAP
30
78
88
88
30
70
18
08
04
ENDCHAR
STARTCHAR char51
ENCODING 8531
SWIDTH 8000 0
DWIDTH 8 0
BBX 6 8 1 0
BITMAP
78
8C
38
0C
78
F0
08
04
ENDCHAR
STARTCHAR char52
ENCODING 8532
SWIDTH 8000 0
DWIDTH 8 0
BBX 7 5 1 2
BITMAP
60
F4
C8
60
3E
ENDCHAR
STARTCHAR char53
ENCODING 8533
SWIDTH 7000 0
DWIDTH 7 0
BBX 5 6 1 1
BITMAP
80
90
90
90
F8
68
ENDCHAR
STARTCHAR char54
ENCODING 8534
SWIDTH 8000 0
DWIDTH 8 0
BBX 6 5 1 2
BITMAP
80
80
D8
54
34
ENDCHAR
STARTCHAR char55
ENCODING 8535
SWIDTH 8000 0
DWIDTH 8 0
BBX 6 5 1 2
BITMAP
04
04
64
AC
B8
ENDCHAR
STARTCHAR char56
ENCODING 8536
SWIDTH 8000 0
DWIDTH 8 0
BBX 6 6 1 1
BITMAP
20
40
40
F0
18
04
ENDCHAR
STARTCHAR char57
ENCODING 8537
SWIDTH 8000 0
DWIDTH 8 0
BBX 6 8 1 -1
BITMAP
78
C8
90
CC
60
10
08
04
ENDCHAR
STARTCHAR char49
ENCODING 8538
SWIDTH 11000 0
DWIDTH 11 0
BBX 9 8 1 -1
BITMAP
3800
6C00
7F00
A480
0C00
0800
1000
2000
ENDCHAR
STARTCHAR char50
ENCODING 8539
SWIDTH 11000 0
DWIDTH 11 0
BBX 9 9 1 -2
BITMAP
1800
2400
7F00
C480
1800
3800
0C00
0400
0200
ENDCHAR
STARTCHAR char51
ENCODING 8540
SWIDTH 11000 0
DWIDTH 11 0
BBX 10 8 1 0
BITMAP
1E00
2300
0E00
7F80
8640
3C00
0200
0100
ENDCHAR
STARTCHAR char52
ENCODING 8541
SWIDTH 11000 0
DWIDTH 11 0
BBX 10 5 1 2
BITMAP
1800
2500
7F80
9840
0F00
ENDCHAR
STARTCHAR char53
ENCODING 8542
SWIDTH 11000 0
DWIDTH 11 0
BBX 9 6 1 1
BITMAP
2000
2400
3F00
E480
3E00
1A00
ENDCHAR
STARTCHAR char54
ENCODING 8543
SWIDTH 11000 0
DWIDTH 11 0
BBX 10 6 1 2
BITMAP
2000
2000
2200
7F80
9540
0D00
ENDCHAR
STARTCHAR char55
ENCODING 8544
SWIDTH 11000 0
DWIDTH 11 0
BBX 9 6 1 1
BITMAP
0200
0200
2200
7F00
D680
5C00
ENDCHAR
STARTCHAR char56
ENCODING 8545
SWIDTH 11000 0
DWIDTH 11 0
BBX 9 6 1 1
BITMAP
0800
1000
3F00
7C80
8600
0100
ENDCHAR
STARTCHAR char57
ENCODING 8546
SWIDTH 12000 0
DWIDTH 12 0
BBX 10 8 1 -1
BITMAP
1E00
3200
3F80
7340
9800
0400
0200
0100
ENDCHAR
STARTCHAR char48
ENCODING 8547
SWIDTH 12000 0
DWIDTH 12 0
BBX 10 6 1 1
BITMAP
1C00
3600
3F80
E240
3600
1C00
ENDCHAR
STARTCHAR char8548
ENCODING 8548
SWIDTH 6000 0
DWIDTH 6 0
BBX 3 8 1 -1
BITMAP
E0
40
00
C0
20
00
C0
20
ENDCHAR
STARTCHAR char115
ENCODING 8549
SWIDTH 8000 0
DWIDTH 8 0
BBX 6 5 1 -6
BITMAP
30
48
30
84
78
ENDCHAR
STARTCHAR char8550
ENCODING 8550
SWIDTH 9000 0
DWIDTH 9 0
BBX 8 8 1 -1
BITMAP
18
18
00
C3
C3
00
18
18
ENDCHAR
STARTCHAR char115
ENCODING 8551
SWIDTH 8000 0
DWIDTH 8 0
BBX 4 3 2 -5
BITMAP
60
90
60
ENDCHAR
STARTCHAR char8552
ENCODING 8552
SWIDTH 9000 0
DWIDTH 9 0
BBX 7 6 1 2
BITMAP
02
02
72
D2
96
BC
ENDCHAR
STARTCHAR char8553
ENCODING 8553
SWIDTH 10000 0
DWIDTH 10 0
BBX 3 3 6 4
BITMAP
60
E0
80
ENDCHAR
STARTCHAR char8554
ENCODING 8554
SWIDTH 17000 0
DWIDTH 17 0
BBX 15 7 1 0
BITMAP
0004
000A
E624
1150
0924
060A
0004
ENDCHAR
STARTCHAR char8554
ENCODING 8555
SWIDTH 17000 0
DWIDTH 17 0
BBX 15 7 1 0
BITMAP
4000
A000
48CE
1510
4920
A0C0
4000
ENDCHAR
STARTCHAR char8556
ENCODING 8556
SWIDTH 10000 0
DWIDTH 10 0
BBX 9 17 0 -5
BITMAP
0080
0300
3E00
6000
6000
6000
6000
6000
6000
6000
6000
6000
6000
6000
6000
4000
8000
ENDCHAR
STARTCHAR char8556
ENCODING 8557
SWIDTH 10000 0
DWIDTH 10 0
BBX 9 17 0 -5
BITMAP
8000
6000
3E00
0300
0300
0300
0300
0300
0300
0300
0300
0300
0300
0300
0300
0100
0080
ENDCHAR
STARTCHAR char8558
ENCODING 8558
SWIDTH 5000 0
DWIDTH 5 0
BBX 5 8 0 -4
BITMAP
38
60
C0
80
80
80
80
80
ENDCHAR
STARTCHAR char8558
ENCODING 8559
SWIDTH 5000 0
DWIDTH 5 0
BBX 5 8 0 -4
BITMAP
E0
30
18
08
08
08
08
08
ENDCHAR
STARTCHAR char65
ENCODING 8737
SWIDTH 8000 0
DWIDTH 8 0
BBX 7 11 1 -4
BITMAP
FE
32
2A
CA
8A
02
02
02
02
02
02
ENDCHAR
STARTCHAR char66
ENCODING 8738
SWIDTH 8000 0
DWIDTH 8 0
BBX 7 11 1 -4
BITMAP
FE
92
A2
A2
BA
86
80
80
80
80
80
ENDCHAR
STARTCHAR char67
ENCODING 8739
SWIDTH 7000 0
DWIDTH 7 0
BBX 6 11 1 -4
BITMAP
FC
54
94
94
F4
14
04
04
04
04
04
ENDCHAR
STARTCHAR char68
ENCODING 8740
SWIDTH 8000 0
DWIDTH 8 0
BBX 7 13 1 -6
BITMAP
FE
8A
EA
1A
02
7C
20
4C
5A
32
12
04
08
ENDCHAR
STARTCHAR char69
ENCODING 8741
SWIDTH 7000 0
DWIDTH 7 0
BBX 6 7 1 0
BITMAP
FC
80
80
80
80
F8
04
ENDCHAR
STARTCHAR char70
ENCODING 8742
SWIDTH 8000 0
DWIDTH 8 0
BBX 7 8 1 -1
BITMAP
3C
10
10
9C
66
22
32
1C
ENDCHAR
STARTCHAR char71
ENCODING 8743
SWIDTH 8000 0
DWIDTH 8 0
BBX 7 8 1 -1
BITMAP
7C
10
10
7C
D6
92
92
6C
ENDCHAR
STARTCHAR char72
ENCODING 8744
SWIDTH 8000 0
DWIDTH 8 0
BBX 7 8 1 -1
BITMAP
FE
40
80
FC
80
80
FC
02
ENDCHAR
STARTCHAR char8745
ENCODING 8745
SWIDTH 9000 0
DWIDTH 9 0
BBX 8 7 1 0
BITMAP
FF
FF
FF
FF
FF
FF
FF
ENDCHAR
STARTCHAR char74
ENCODING 8746
SWIDTH 8000 0
DWIDTH 8 0
BBX 7 10 1 -3
BITMAP
78
88
88
DE
22
32
1A
04
04
08
ENDCHAR
STARTCHAR char75
ENCODING 8747
SWIDTH 7000 0
DWIDTH 7 0
BBX 6 11 1 -4
BITMAP
FC
04
04
7C
C4
80
80
40
20
10
08
ENDCHAR
STARTCHAR char76
ENCODING 8748
SWIDTH 7000 0
DWIDTH 7 0
BBX 6 8 1 -1
BITMAP
F8
84
84
F8
84
84
BC
C0
ENDCHAR
STARTCHAR char77
ENCODING 8749
SWIDTH 8000 0
DWIDTH 8 0
BBX 7 11 1 -4
BITMAP
7C
04
02
3E
60
40
80
80
80
80
80
ENDCHAR
STARTCHAR char78
ENCODING 8750
SWIDTH 7000 0
DWIDTH 7 0
BBX 6 13 1 -6
BITMAP
FC
04
3C
40
80
F8
40
98
F4
64
24
08
10
ENDCHAR
STARTCHAR char79
ENCODING 8751
SWIDTH 7000 0
DWIDTH 7 0
BBX 6 11 1 -4
BITMAP
F8
20
20
78
C4
C4
B8
80
80
80
80
ENDCHAR
STARTCHAR char75
ENCODING 8752
SWIDTH 7000 0
DWIDTH 7 0
BBX 6 11 1 -4
BITMAP
FC
80
80
F8
8C
04
04
08
10
20
40
ENDCHAR
STARTCHAR char76
ENCODING 8753
SWIDTH 7000 0
DWIDTH 7 0
BBX 6 8 1 -1
BITMAP
7C
84
84
7C
84
84
F4
0C
ENDCHAR
STARTCHAR char77
ENCODING 8754
SWIDTH 8000 0
DWIDTH 8 0
BBX 7 11 1 -4
BITMAP
7C
40
80
F8
0C
04
02
02
02
02
02
ENDCHAR
STARTCHAR char83
ENCODING 8755
SWIDTH 8000 0
DWIDTH 8 0
BBX 7 13 1 -6
BITMAP
FC
80
F8
04
02
FC
40
98
E4
24
04
08
10
ENDCHAR
STARTCHAR char79
ENCODING 8756
SWIDTH 7000 0
DWIDTH 7 0
BBX 6 11 1 -4
BITMAP
7C
10
10
78
8C
8C
74
04
04
04
04
ENDCHAR
STARTCHAR char85
ENCODING 8757
SWIDTH 8000 0
DWIDTH 8 0
BBX 7 8 1 -1
BITMAP
F6
42
82
82
F2
FA
06
02
ENDCHAR
STARTCHAR char85
ENCODING 8758
SWIDTH 8000 0
DWIDTH 8 0
BBX 7 8 1 -1
BITMAP
F6
46
8A
92
F2
FA
06
02
ENDCHAR
STARTCHAR char85
ENCODING 8759
SWIDTH 8000 0
DWIDTH 8 0
BBX 7 8 1 -1
BITMAP
FE
42
82
82
F2
FA
06
02
ENDCHAR
STARTCHAR char88
ENCODING 8760
SWIDTH 7000 0
DWIDTH 7 0
BBX 6 12 1 -5
BITMAP
FC
44
84
F4
0C
FC
40
D8
64
24
08
10
ENDCHAR
STARTCHAR char89
ENCODING 8761
SWIDTH 8000 0
DWIDTH 8 0
BBX 7 8 1 -1
BITMAP
F6
22
22
72
9A
9A
76
02
ENDCHAR
STARTCHAR char70
ENCODING 8762
SWIDTH 8000 0
DWIDTH 8 0
BBX 8 10 1 -1
BITMAP
03
02
3C
10
10
9C
66
22
32
1C
ENDCHAR
STARTCHAR char71
ENCODING 8763
SWIDTH 8000 0
DWIDTH 8 0
BBX 8 10 1 -1
BITMAP
03
02
7C
10
10
7C
D6
92
92
6C
ENDCHAR
STARTCHAR char72
ENCODING 8764
SWIDTH 9000 0
DWIDTH 9 0
BBX 9 10 1 -1
BITMAP
0180
0100
FE00
4000
8000
FC00
8000
8000
FC00
0200
ENDCHAR
STARTCHAR char93
ENCODING 8765
SWIDTH 9000 0
DWIDTH 9 0
BBX 9 15 1 -6
BITMAP
0180
0100
FE00
4000
FC00
8000
FC00
0200
7C00
1000
6C00
3200
1200
0400
0800
ENDCHAR
STARTCHAR char94
ENCODING 8766
SWIDTH 8000 0
DWIDTH 8 0
BBX 7 9 1 -2
BITMAP
66
94
94
94
7E
42
7A
06
02
ENDCHAR
STARTCHAR char95
ENCODING 8767
SWIDTH 8000 0
DWIDTH 8 0
BBX 7 11 1 -4
BITMAP
3E
44
9C
A4
A6
9E
C2
02
02
02
02
ENDCHAR
STARTCHAR char96
ENCODING 8768
SWIDTH 7000 0
DWIDTH 7 0
BBX 6 8 1 -1
BITMAP
FC
04
04
7C
04
04
FC
04
ENDCHAR
STARTCHAR char97
ENCODING 8769
SWIDTH 8000 0
DWIDTH 8 0
BBX 7 9 1 -2
BITMAP
7C
4C
84
84
88
5C
04
02
02
ENDCHAR
STARTCHAR char98
ENCODING 8770
SWIDTH 8000 0
DWIDTH 8 0
BBX 7 7 1 0
BITMAP
D6
92
92
92
7A
06
02
ENDCHAR
STARTCHAR char99
ENCODING 8771
SWIDTH 9000 0
DWIDTH 9 0
BBX 8 8 1 -1
BITMAP
7C
10
10
10
78
84
02
01
ENDCHAR
STARTCHAR char100
ENCODING 8772
SWIDTH 9000 0
DWIDTH 9 0
BBX 8 8 1 -1
BITMAP
73
89
89
89
89
5D
03
01
ENDCHAR
STARTCHAR char101
ENCODING 8773
SWIDTH 8000 0
DWIDTH 8 0
BBX 7 11 1 -4
BITMAP
1E
22
22
32
2E
E2
12
02
02
02
02
ENDCHAR
STARTCHAR char101
ENCODING 8774
SWIDTH 8000 0
DWIDTH 8 0
BBX 7 11 1 -4
BITMAP
F0
88
88
98
E8
8E
90
80
80
80
80
ENDCHAR
STARTCHAR char103
ENCODING 8775
SWIDTH 8000 0
DWIDTH 8 0
BBX 7 8 1 -1
BITMAP
F6
62
F2
8A
E6
32
0A
02
ENDCHAR
STARTCHAR char104
ENCODING 8776
SWIDTH 7000 0
DWIDTH 7 0
BBX 6 10 1 -3
BITMAP
F8
40
80
D8
64
24
04
08
10
20
ENDCHAR
STARTCHAR char105
ENCODING 8777
SWIDTH 8000 0
DWIDTH 8 0
BBX 7 8 1 -1
BITMAP
B6
92
BA
AA
96
96
62
02
ENDCHAR
STARTCHAR char106
ENCODING 8778
SWIDTH 9000 0
DWIDTH 9 0
BBX 8 12 1 -5
BITMAP
FE
32
4A
8A
02
F2
88
88
F4
8F
88
80
ENDCHAR
STARTCHAR char99
ENCODING 8779
SWIDTH 9000 0
DWIDTH 9 0
BBX 8 8 1 -1
BITMAP
7C
10
10
10
78
84
02
01
ENDCHAR
STARTCHAR char8780
ENCODING 8780
SWIDTH 9000 0
DWIDTH 9 0
BBX 8 7 1 0
BITMAP
FF
FF
FF
FF
FF
FF
FF
ENDCHAR
STARTCHAR char8781
ENCODING 8781
SWIDTH 9000 0
DWIDTH 9 0
BBX 8 7 1 0
BITMAP
FF
FF
FF
FF
FF
FF
FF
ENDCHAR
STARTCHAR char8782
ENCODING 8782
SWIDTH 9000 0
DWIDTH 9 0
BBX 8 7 1 0
BITMAP
FF
FF
FF
FF
FF
FF
FF
ENDCHAR
STARTCHAR char8783
ENCODING 8783
SWIDTH 9000 0
DWIDTH 9 0
BBX 8 7 1 0
BITMAP
FF
FF
FF
FF
FF
FF
FF
ENDCHAR
STARTCHAR char8784
ENCODING 8784
SWIDTH 9000 0
DWIDTH 9 0
BBX 8 7 1 0
BITMAP
FF
FF
FF
FF
FF
FF
FF
ENDCHAR
STARTCHAR char8784
ENCODING 8785
SWIDTH 8000 0
DWIDTH 8 0
BBX 7 7 1 0
BITMAP
AA
00
82
00
82
00
AA
ENDCHAR
STARTCHAR char33
ENCODING 8786
SWIDTH 8000 0
DWIDTH 8 0
BBX 5 6 3 -5
BITMAP
60
90
90
A0
70
08
ENDCHAR
STARTCHAR char107
ENCODING 8787
SWIDTH 7000 0
DWIDTH 7 0
BBX 7 5 0 2
BITMAP
60
F0
88
44
02
ENDCHAR
STARTCHAR char107
ENCODING 8788
SWIDTH 7000 0
DWIDTH 7 0
BBX 7 14 0 -7
BITMAP
60
F0
88
44
02
00
00
00
18
24
24
28
1C
02
ENDCHAR
STARTCHAR char108
ENCODING 8789
SWIDTH 8000 0
DWIDTH 8 0
BBX 8 5 0 -4
BITMAP
80
46
29
11
0E
ENDCHAR
STARTCHAR char108
ENCODING 8790
SWIDTH 8000 0
DWIDTH 8 0
BBX 8 10 1 -4
BITMAP
18
24
24
28
1C
82
46
29
11
0E
ENDCHAR
STARTCHAR char111
ENCODING 8791
SWIDTH 8000 0
DWIDTH 8 0
BBX 7 10 0 -3
BITMAP
0C
1E
22
44
80
00
00
72
7A
06
ENDCHAR
STARTCHAR char111
ENCODING 8792
SWIDTH 8000 0
DWIDTH 8 0
BBX 7 15 0 -8
BITMAP
0C
1E
22
44
80
00
72
7A
06
18
24
24
28
1C
02
ENDCHAR
STARTCHAR char111
ENCODING 8793
SWIDTH 11000 0
DWIDTH 11 0
BBX 7 12 0 -5
BITMAP
0C
1E
22
44
80
00
62
92
92
92
BA
06
ENDCHAR
STARTCHAR char111
ENCODING 8794
SWIDTH 11000 0
DWIDTH 11 0
BBX 7 16 0 -8
BITMAP
0C
1E
22
44
80
62
92
92
BA
06
18
24
24
28
1C
02
ENDCHAR
STARTCHAR char109
ENCODING 8795
SWIDTH 8000 0
DWIDTH 8 0
BBX 7 4 1 3
BITMAP
E0
78
04
02
ENDCHAR
STARTCHAR char112
ENCODING 8796
SWIDTH 7000 0
DWIDTH 7 0
BBX 7 4 0 3
BITMAP
F0
08
7C
02
ENDCHAR
STARTCHAR char110
ENCODING 8797
SWIDTH 9000 0
DWIDTH 9 0
BBX 10 4 0 3
BITMAP
01C0
E380
1C00
0800
ENDCHAR
STARTCHAR char113
ENCODING 8798
SWIDTH 9000 0
DWIDTH 9 0
BBX 9 5 0 2
BITMAP
0380
EC00
1380
FC00
0800
ENDCHAR
STARTCHAR char115
ENCODING 8799
SWIDTH 8000 0
DWIDTH 8 0
BBX 3 3 3 4
BITMAP
40
A0
40
ENDCHAR
STARTCHAR char114
ENCODING 8800
SWIDTH 5000 0
DWIDTH 5 0
BBX 3 7 1 0
BITMAP
40
A0
40
00
40
A0
40
ENDCHAR
STARTCHAR char107
ENCODING 8801
SWIDTH 7000 0
DWIDTH 7 0
BBX 7 5 0 2
BITMAP
0C
1E
22
44
80
ENDCHAR
STARTCHAR char107
ENCODING 8802
SWIDTH 7000 0
DWIDTH 7 0
BBX 7 14 0 -7
BITMAP
0C
1E
22
44
80
00
00
00
18
24
24
28
1C
02
ENDCHAR
STARTCHAR char116
ENCODING 8803
SWIDTH 7000 0
DWIDTH 7 0
BBX 5 7 1 3
BITMAP
20
20
20
50
20
88
70
ENDCHAR
STARTCHAR char116
ENCODING 8804
SWIDTH 7000 0
DWIDTH 7 0
BBX 5 5 1 3
BITMAP
20
50
20
88
70
ENDCHAR
STARTCHAR char119
ENCODING 8805
SWIDTH 8000 0
DWIDTH 8 0
BBX 5 4 4 -3
BITMAP
C0
60
10
08
ENDCHAR
STARTCHAR char118
ENCODING 8806
SWIDTH 8000 0
DWIDTH 8 0
BBX 7 12 1 -5
BITMAP
78
88
88
DC
26
32
3A
02
04
04
04
02
ENDCHAR
STARTCHAR char120
ENCODING 8807
SWIDTH 7000 0
DWIDTH 7 0
BBX 3 5 2 7
BITMAP
40
40
80
A0
40
ENDCHAR
STARTCHAR char121
ENCODING 8808
SWIDTH 7000 0
DWIDTH 7 0
BBX 1 4 3 8
BITMAP
80
80
80
80
ENDCHAR
STARTCHAR char122
ENCODING 8809
SWIDTH 8000 0
DWIDTH 8 0
BBX 6 5 1 2
BITMAP
FC
48
30
48
FC
ENDCHAR
STARTCHAR char123
ENCODING 8810
SWIDTH 7000 0
DWIDTH 7 0
BBX 5 5 1 2
BITMAP
50
A8
A8
A8
A8
ENDCHAR
STARTCHAR char124
ENCODING 8811
SWIDTH 9000 0
DWIDTH 9 0
BBX 7 5 1 2
BITMAP
EE
AA
AA
AA
BA
ENDCHAR
STARTCHAR char125
ENCODING 8812
SWIDTH 8000 0
DWIDTH 8 0
BBX 7 5 1 2
BITMAP
4C
AA
A8
B8
88
ENDCHAR
STARTCHAR char8784
ENCODING 8813
SWIDTH 9000 0
DWIDTH 9 0
BBX 8 7 1 0
BITMAP
FF
FF
FF
FF
FF
FF
FF
ENDCHAR
STARTCHAR char8784
ENCODING 8814
SWIDTH 9000 0
DWIDTH 9 0
BBX 8 7 1 0
BITMAP
FF
FF
FF
FF
FF
FF
FF
ENDCHAR
STARTCHAR char8784
ENCODING 8815
SWIDTH 9000 0
DWIDTH 9 0
BBX 8 7 1 0
BITMAP
FF
FF
FF
FF
FF
FF
FF
ENDCHAR
STARTCHAR char8779
ENCODING 8816
SWIDTH 9000 0
DWIDTH 9 0
BBX 8 7 1 0
BITMAP
FF
FF
FF
FF
FF
FF
FF
ENDCHAR
STARTCHAR char8780
ENCODING 8817
SWIDTH 9000 0
DWIDTH 9 0
BBX 8 7 1 0
BITMAP
FF
FF
FF
FF
FF
FF
FF
ENDCHAR
STARTCHAR char8781
ENCODING 8818
SWIDTH 9000 0
DWIDTH 9 0
BBX 8 7 1 0
BITMAP
FF
FF
FF
FF
FF
FF
FF
ENDCHAR
STARTCHAR char8782
ENCODING 8819
SWIDTH 9000 0
DWIDTH 9 0
BBX 8 7 1 0
BITMAP
FF
FF
FF
FF
FF
FF
FF
ENDCHAR
STARTCHAR char8783
ENCODING 8820
SWIDTH 9000 0
DWIDTH 9 0
BBX 8 7 1 0
BITMAP
FF
FF
FF
FF
FF
FF
FF
ENDCHAR
STARTCHAR char8779
ENCODING 8821
SWIDTH 9000 0
DWIDTH 9 0
BBX 8 7 1 0
BITMAP
FF
FF
FF
FF
FF
FF
FF
ENDCHAR
STARTCHAR char8780
ENCODING 8822
SWIDTH 9000 0
DWIDTH 9 0
BBX 8 7 1 0
BITMAP
FF
FF
FF
FF
FF
FF
FF
ENDCHAR
STARTCHAR char8781
ENCODING 8823
SWIDTH 9000 0
DWIDTH 9 0
BBX 8 7 1 0
BITMAP
FF
FF
FF
FF
FF
FF
FF
ENDCHAR
STARTCHAR char8782
ENCODING 8824
SWIDTH 9000 0
DWIDTH 9 0
BBX 8 7 1 0
BITMAP
FF
FF
FF
FF
FF
FF
FF
ENDCHAR
STARTCHAR char8783
ENCODING 8825
SWIDTH 9000 0
DWIDTH 9 0
BBX 8 7 1 0
BITMAP
FF
FF
FF
FF
FF
FF
FF
ENDCHAR
STARTCHAR char8779
ENCODING 8826
SWIDTH 9000 0
DWIDTH 9 0
BBX 8 7 1 0
BITMAP
FF
FF
FF
FF
FF
FF
FF
ENDCHAR
STARTCHAR char8780
ENCODING 8827
SWIDTH 9000 0
DWIDTH 9 0
BBX 8 7 1 0
BITMAP
FF
FF
FF
FF
FF
FF
FF
ENDCHAR
STARTCHAR char8781
ENCODING 8828
SWIDTH 9000 0
DWIDTH 9 0
BBX 8 7 1 0
BITMAP
FF
FF
FF
FF
FF
FF
FF
ENDCHAR
STARTCHAR char8782
ENCODING 8829
SWIDTH 9000 0
DWIDTH 9 0
BBX 8 7 1 0
BITMAP
FF
FF
FF
FF
FF
FF
FF
ENDCHAR
STARTCHAR char8783
ENCODING 8830
SWIDTH 9000 0
DWIDTH 9 0
BBX 8 7 1 0
BITMAP
FF
FF
FF
FF
FF
FF
FF
ENDCHAR
STARTCHAR char1
ENCODING 8993
SWIDTH 8000 0
DWIDTH 8 0
BBX 7 6 1 1
BITMAP
FE
12
2A
CA
0A
02
ENDCHAR
STARTCHAR char2
ENCODING 8994
SWIDTH 8000 0
DWIDTH 8 0
BBX 7 6 1 1
BITMAP
7E
92
92
9A
86
80
ENDCHAR
STARTCHAR char3
ENCODING 8995
SWIDTH 8000 0
DWIDTH 8 0
BBX 7 6 1 1
BITMAP
FE
4A
8A
FA
0A
02
ENDCHAR
STARTCHAR char4
ENCODING 8996
SWIDTH 8000 0
DWIDTH 8 0
BBX 7 11 1 -4
BITMAP
FE
4A
8A
FA
0A
FC
40
DC
62
22
04
ENDCHAR
STARTCHAR char5
ENCODING 8997
SWIDTH 7000 0
DWIDTH 7 0
BBX 6 5 1 2
BITMAP
FC
80
80
F8
04
ENDCHAR
STARTCHAR char6
ENCODING 8998
SWIDTH 7000 0
DWIDTH 7 0
BBX 6 6 1 1
BITMAP
78
20
30
CC
44
38
ENDCHAR
STARTCHAR char7
ENCODING 8999
SWIDTH 8000 0
DWIDTH 8 0
BBX 7 6 1 1
BITMAP
7C
10
7C
92
92
6C
ENDCHAR
STARTCHAR char8
ENCODING 9000
SWIDTH 7000 0
DWIDTH 7 0
BBX 6 6 1 1
BITMAP
FC
80
F8
80
F8
04
ENDCHAR
STARTCHAR char9001
ENCODING 9001
SWIDTH 9000 0
DWIDTH 9 0
BBX 8 7 1 0
BITMAP
FF
FF
FF
FF
FF
FF
FF
ENDCHAR
STARTCHAR char10
ENCODING 9002
SWIDTH 7000 0
DWIDTH 7 0
BBX 6 7 1 0
BITMAP
70
88
DC
64
14
08
10
ENDCHAR
STARTCHAR char11
ENCODING 9003
SWIDTH 7000 0
DWIDTH 7 0
BBX 6 6 1 1
BITMAP
FC
04
74
88
80
40
ENDCHAR
STARTCHAR char17
ENCODING 9004
SWIDTH 7000 0
DWIDTH 7 0
BBX 5 6 1 1
BITMAP
F0
88
F0
88
F8
80
ENDCHAR
STARTCHAR char13
ENCODING 9005
SWIDTH 7000 0
DWIDTH 7 0
BBX 6 6 1 1
BITMAP
7C
04
3C
40
80
80
ENDCHAR
STARTCHAR char14
ENCODING 9006
SWIDTH 7000 0
DWIDTH 7 0
BBX 6 11 1 -4
BITMAP
F8
08
78
80
F8
40
98
E4
24
08
10
ENDCHAR
STARTCHAR char15
ENCODING 9007
SWIDTH 7000 0
DWIDTH 7 0
BBX 5 8 1 -1
BITMAP
F8
20
30
48
C8
B0
80
80
ENDCHAR
STARTCHAR char11
ENCODING 9008
SWIDTH 7000 0
DWIDTH 7 0
BBX 6 6 1 1
BITMAP
FC
80
B8
44
04
08
ENDCHAR
STARTCHAR char17
ENCODING 9009
SWIDTH 7000 0
DWIDTH 7 0
BBX 5 6 1 1
BITMAP
78
88
78
88
F8
08
ENDCHAR
STARTCHAR char13
ENCODING 9010
SWIDTH 7000 0
DWIDTH 7 0
BBX 6 6 1 1
BITMAP
F8
80
F0
08
04
04
ENDCHAR
STARTCHAR char19
ENCODING 9011
SWIDTH 8000 0
DWIDTH 8 0
BBX 7 10 1 -3
BITMAP
FC
80
FC
02
FC
40
98
E4
24
08
ENDCHAR
STARTCHAR char15
ENCODING 9012
SWIDTH 7000 0
DWIDTH 7 0
BBX 5 8 1 -1
BITMAP
F8
20
60
90
98
68
08
08
ENDCHAR
STARTCHAR char21
ENCODING 9013
SWIDTH 8000 0
DWIDTH 8 0
BBX 7 6 1 1
BITMAP
E6
42
82
82
FA
06
ENDCHAR
STARTCHAR char21
ENCODING 9014
SWIDTH 8000 0
DWIDTH 8 0
BBX 7 6 1 1
BITMAP
E6
46
8A
92
FA
06
ENDCHAR
STARTCHAR char21
ENCODING 9015
SWIDTH 8000 0
DWIDTH 8 0
BBX 7 6 1 1
BITMAP
FE
42
82
82
FA
06
ENDCHAR
STARTCHAR char24
ENCODING 9016
SWIDTH 7000 0
DWIDTH 7 0
BBX 6 11 1 -4
BITMAP
FC
44
84
FC
04
F8
40
98
64
24
08
ENDCHAR
STARTCHAR char25
ENCODING 9017
SWIDTH 8000 0
DWIDTH 8 0
BBX 7 6 1 1
BITMAP
F6
22
72
9A
66
02
ENDCHAR
STARTCHAR char6
ENCODING 9018
SWIDTH 8000 0
DWIDTH 8 0
BBX 7 8 1 1
BITMAP
06
04
78
20
30
CC
44
38
ENDCHAR
STARTCHAR char7
ENCODING 9019
SWIDTH 9000 0
DWIDTH 9 0
BBX 8 8 1 1
BITMAP
03
02
7C
10
7C
92
92
6C
ENDCHAR
STARTCHAR char8
ENCODING 9020
SWIDTH 8000 0
DWIDTH 8 0
BBX 7 8 1 1
BITMAP
06
04
F8
80
F8
80
F8
04
ENDCHAR
STARTCHAR char29
ENCODING 9021
SWIDTH 9000 0
DWIDTH 9 0
BBX 8 14 1 -5
BITMAP
03
02
7C
80
F8
80
FC
02
7C
20
4C
32
12
04
ENDCHAR
STARTCHAR char30
ENCODING 9022
SWIDTH 8000 0
DWIDTH 8 0
BBX 3 5 5 2
BITMAP
20
60
A0
60
20
ENDCHAR
STARTCHAR char31
ENCODING 9023
SWIDTH 8000 0
DWIDTH 8 0
BBX 7 7 1 0
BITMAP
3C
44
9C
A6
9E
C2
02
ENDCHAR
STARTCHAR char32
ENCODING 9024
SWIDTH 7000 0
DWIDTH 7 0
BBX 6 6 1 1
BITMAP
FC
04
7C
04
FC
04
ENDCHAR
STARTCHAR char252
ENCODING 9025
SWIDTH 8000 0
DWIDTH 8 0
BBX 7 6 1 1
BITMAP
38
44
84
88
5C
02
ENDCHAR
STARTCHAR char34
ENCODING 9026
SWIDTH 9000 0
DWIDTH 9 0
BBX 8 5 1 2
BITMAP
02
02
FD
42
3C
ENDCHAR
STARTCHAR char35
ENCODING 9027
SWIDTH 8000 0
DWIDTH 8 0
BBX 7 4 1 3
BITMAP
02
F2
FE
06
ENDCHAR
STARTCHAR char36
ENCODING 9028
SWIDTH 8000 0
DWIDTH 8 0
BBX 7 5 1 2
BITMAP
76
92
92
BA
06
ENDCHAR
STARTCHAR char37
ENCODING 9029
SWIDTH 8000 0
DWIDTH 8 0
BBX 7 6 1 1
BITMAP
1E
32
22
FE
22
02
ENDCHAR
STARTCHAR char37
ENCODING 9030
SWIDTH 8000 0
DWIDTH 8 0
BBX 7 6 1 1
BITMAP
F0
98
88
FE
88
80
ENDCHAR
STARTCHAR char39
ENCODING 9031
SWIDTH 7000 0
DWIDTH 7 0
BBX 6 5 1 2
BITMAP
F4
64
94
EC
14
ENDCHAR
STARTCHAR char40
ENCODING 9032
SWIDTH 7000 0
DWIDTH 7 0
BBX 6 6 1 1
BITMAP
F8
40
98
E4
24
08
ENDCHAR
STARTCHAR char41
ENCODING 9033
SWIDTH 8000 0
DWIDTH 8 0
BBX 7 7 1 0
BITMAP
BA
92
BA
9A
96
62
02
ENDCHAR
STARTCHAR char42
ENCODING 9034
SWIDTH 8000 0
DWIDTH 8 0
BBX 7 10 1 -3
BITMAP
FE
32
52
8A
02
72
48
78
4E
50
ENDCHAR
STARTCHAR char253
ENCODING 9035
SWIDTH 7000 0
DWIDTH 7 0
BBX 6 7 1 0
BITMAP
EC
A8
7C
24
44
7C
04
ENDCHAR
STARTCHAR char254
ENCODING 9036
SWIDTH 8000 0
DWIDTH 8 0
BBX 7 5 1 2
BITMAP
B6
92
9A
66
02
ENDCHAR
STARTCHAR char255
ENCODING 9037
SWIDTH 9000 0
DWIDTH 9 0
BBX 8 6 1 1
BITMAP
7C
10
10
78
86
01
ENDCHAR
STARTCHAR char9039
ENCODING 9038
SWIDTH 9000 0
DWIDTH 9 0
BBX 8 7 1 0
BITMAP
FF
FF
FF
FF
FF
FF
FF
ENDCHAR
STARTCHAR char8525
ENCODING 9039
SWIDTH 9000 0
DWIDTH 9 0
BBX 8 7 1 0
BITMAP
C3
66
3C
18
3C
42
81
ENDCHAR
STARTCHAR char8525
ENCODING 9040
SWIDTH 12000 0
DWIDTH 12 0
BBX 10 10 1 -3
BITMAP
0C00
0C00
6180
3300
DEC0
CCC0
1E00
2100
4C80
0C00
ENDCHAR
STARTCHAR char9042
ENCODING 9041
SWIDTH 11000 0
DWIDTH 11 0
BBX 9 6 1 1
BITMAP
3E00
6300
C180
C180
6300
3E00
ENDCHAR
STARTCHAR char9043
ENCODING 9042
SWIDTH 9000 0
DWIDTH 9 0
BBX 7 5 1 2
BITMAP
7C
C6
82
C6
7C
ENDCHAR
STARTCHAR char9044
ENCODING 9043
SWIDTH 10000 0
DWIDTH 10 0
BBX 8 11 1 -4
BITMAP
18
1C
03
3D
43
42
C2
BC
C0
38
18
ENDCHAR
STARTCHAR char9045
ENCODING 9044
SWIDTH 11000 0
DWIDTH 11 0
BBX 9 8 1 -1
BITMAP
3E00
4100
9C80
AA80
AA80
9C80
4900
3E00
ENDCHAR
STARTCHAR char9046
ENCODING 9045
SWIDTH 9000 0
DWIDTH 9 0
BBX 7 14 1 -7
BITMAP
10
BA
54
38
10
10
38
6C
44
44
44
7C
C6
FE
ENDCHAR
STARTCHAR char9046
ENCODING 9046
SWIDTH 9000 0
DWIDTH 9 0
BBX 7 15 1 -8
BITMAP
10
BA
54
38
10
38
44
54
44
38
10
38
54
BA
10
ENDCHAR
STARTCHAR char9048
ENCODING 9047
SWIDTH 14000 0
DWIDTH 14 0
BBX 13 6 0 -8
BITMAP
8008
5250
7FF0
5250
3FE0
5550
ENDCHAR
STARTCHAR char9046
ENCODING 9048
SWIDTH 17000 0
DWIDTH 17 0
BBX 15 15 1 -8
BITMAP
0100
0BA0
0540
0380
0104
A388
5454
FD7E
5454
A388
0104
0380
0540
0BA0
0100
ENDCHAR
STARTCHAR char9050
ENCODING 9049
SWIDTH 11000 0
DWIDTH 11 0
BBX 9 15 1 -8
BITMAP
2A00
1C00
2A00
1C00
0800
0800
FF80
4100
7F00
4100
2200
2200
1400
0800
0800
ENDCHAR
STARTCHAR char9051
ENCODING 9050
SWIDTH 10000 0
DWIDTH 10 0
BBX 8 10 1 -3
BITMAP
18
3C
42
99
81
BD
81
81
42
3C
ENDCHAR
STARTCHAR char9045
ENCODING 9051
SWIDTH 11000 0
DWIDTH 11 0
BBX 9 9 1 -2
BITMAP
3E00
4100
8480
9180
AA80
C480
9080
4100
3E00
ENDCHAR
STARTCHAR char9045
ENCODING 9052
SWIDTH 11000 0
DWIDTH 11 0
BBX 9 9 1 -2
BITMAP
3E00
4100
A580
D180
8E80
A880
8A80
4500
3E00
ENDCHAR
STARTCHAR char9045
ENCODING 9053
SWIDTH 11000 0
DWIDTH 11 0
BBX 9 9 1 -2
BITMAP
3E00
5900
A680
B580
C980
D680
B280
4D00
3E00
ENDCHAR
STARTCHAR char9039
ENCODING 9054
SWIDTH 9000 0
DWIDTH 9 0
BBX 8 7 1 0
BITMAP
FF
FF
FF
FF
FF
FF
FF
ENDCHAR
STARTCHAR char9039
ENCODING 9055
SWIDTH 9000 0
DWIDTH 9 0
BBX 8 7 1 0
BITMAP
FF
FF
FF
FF
FF
FF
FF
ENDCHAR
STARTCHAR char8526
ENCODING 9056
SWIDTH 12000 0
DWIDTH 12 0
BBX 10 9 1 -2
BITMAP
3600
1C00
1C00
3600
0000
DEC0
7380
7380
DEC0
ENDCHAR
STARTCHAR char8779
ENCODING 9057
SWIDTH 9000 0
DWIDTH 9 0
BBX 8 7 1 0
BITMAP
FF
FF
FF
FF
FF
FF
FF
ENDCHAR
STARTCHAR char8780
ENCODING 9058
SWIDTH 9000 0
DWIDTH 9 0
BBX 8 7 1 0
BITMAP
FF
FF
FF
FF
FF
FF
FF
ENDCHAR
STARTCHAR char8781
ENCODING 9059
SWIDTH 9000 0
DWIDTH 9 0
BBX 8 7 1 0
BITMAP
FF
FF
FF
FF
FF
FF
FF
ENDCHAR
STARTCHAR char8782
ENCODING 9060
SWIDTH 9000 0
DWIDTH 9 0
BBX 8 7 1 0
BITMAP
FF
FF
FF
FF
FF
FF
FF
ENDCHAR
STARTCHAR char8783
ENCODING 9061
SWIDTH 9000 0
DWIDTH 9 0
BBX 8 7 1 0
BITMAP
FF
FF
FF
FF
FF
FF
FF
ENDCHAR
STARTCHAR char8779
ENCODING 9062
SWIDTH 9000 0
DWIDTH 9 0
BBX 8 7 1 0
BITMAP
FF
FF
FF
FF
FF
FF
FF
ENDCHAR
STARTCHAR char8780
ENCODING 9063
SWIDTH 9000 0
DWIDTH 9 0
BBX 8 7 1 0
BITMAP
FF
FF
FF
FF
FF
FF
FF
ENDCHAR
STARTCHAR char8781
ENCODING 9064
SWIDTH 9000 0
DWIDTH 9 0
BBX 8 7 1 0
BITMAP
FF
FF
FF
FF
FF
FF
FF
ENDCHAR
STARTCHAR char8782
ENCODING 9065
SWIDTH 9000 0
DWIDTH 9 0
BBX 8 7 1 0
BITMAP
FF
FF
FF
FF
FF
FF
FF
ENDCHAR
STARTCHAR char8783
ENCODING 9066
SWIDTH 9000 0
DWIDTH 9 0
BBX 8 7 1 0
BITMAP
FF
FF
FF
FF
FF
FF
FF
ENDCHAR
STARTCHAR char8779
ENCODING 9067
SWIDTH 9000 0
DWIDTH 9 0
BBX 8 7 1 0
BITMAP
FF
FF
FF
FF
FF
FF
FF
ENDCHAR
STARTCHAR char8780
ENCODING 9068
SWIDTH 9000 0
DWIDTH 9 0
BBX 8 7 1 0
BITMAP
FF
FF
FF
FF
FF
FF
FF
ENDCHAR
STARTCHAR char8781
ENCODING 9069
SWIDTH 9000 0
DWIDTH 9 0
BBX 8 7 1 0
BITMAP
FF
FF
FF
FF
FF
FF
FF
ENDCHAR
STARTCHAR char8782
ENCODING 9070
SWIDTH 9000 0
DWIDTH 9 0
BBX 8 7 1 0
BITMAP
FF
FF
FF
FF
FF
FF
FF
ENDCHAR
STARTCHAR char8783
ENCODING 9071
SWIDTH 9000 0
DWIDTH 9 0
BBX 8 7 1 0
BITMAP
FF
FF
FF
FF
FF
FF
FF
ENDCHAR
STARTCHAR char8779
ENCODING 9072
SWIDTH 9000 0
DWIDTH 9 0
BBX 8 7 1 0
BITMAP
FF
FF
FF
FF
FF
FF
FF
ENDCHAR
STARTCHAR char8780
ENCODING 9073
SWIDTH 9000 0
DWIDTH 9 0
BBX 8 7 1 0
BITMAP
FF
FF
FF
FF
FF
FF
FF
ENDCHAR
STARTCHAR char8781
ENCODING 9074
SWIDTH 9000 0
DWIDTH 9 0
BBX 8 7 1 0
BITMAP
FF
FF
FF
FF
FF
FF
FF
ENDCHAR
STARTCHAR char8782
ENCODING 9075
SWIDTH 9000 0
DWIDTH 9 0
BBX 8 7 1 0
BITMAP
FF
FF
FF
FF
FF
FF
FF
ENDCHAR
STARTCHAR char8783
ENCODING 9076
SWIDTH 9000 0
DWIDTH 9 0
BBX 8 7 1 0
BITMAP
FF
FF
FF
FF
FF
FF
FF
ENDCHAR
STARTCHAR char8779
ENCODING 9077
SWIDTH 9000 0
DWIDTH 9 0
BBX 8 7 1 0
BITMAP
FF
FF
FF
FF
FF
FF
FF
ENDCHAR
STARTCHAR char8780
ENCODING 9078
SWIDTH 9000 0
DWIDTH 9 0
BBX 8 7 1 0
BITMAP
FF
FF
FF
FF
FF
FF
FF
ENDCHAR
STARTCHAR char8781
ENCODING 9079
SWIDTH 9000 0
DWIDTH 9 0
BBX 8 7 1 0
BITMAP
FF
FF
FF
FF
FF
FF
FF
ENDCHAR
STARTCHAR char8782
ENCODING 9080
SWIDTH 9000 0
DWIDTH 9 0
BBX 8 7 1 0
BITMAP
FF
FF
FF
FF
FF
FF
FF
ENDCHAR
STARTCHAR char8783
ENCODING 9081
SWIDTH 9000 0
DWIDTH 9 0
BBX 8 7 1 0
BITMAP
FF
FF
FF
FF
FF
FF
FF
ENDCHAR
STARTCHAR char8779
ENCODING 9082
SWIDTH 9000 0
DWIDTH 9 0
BBX 8 7 1 0
BITMAP
FF
FF
FF
FF
FF
FF
FF
ENDCHAR
STARTCHAR char8780
ENCODING 9083
SWIDTH 9000 0
DWIDTH 9 0
BBX 8 7 1 0
BITMAP
FF
FF
FF
FF
FF
FF
FF
ENDCHAR
STARTCHAR char8781
ENCODING 9084
SWIDTH 9000 0
DWIDTH 9 0
BBX 8 7 1 0
BITMAP
FF
FF
FF
FF
FF
FF
FF
ENDCHAR
STARTCHAR char8782
ENCODING 9085
SWIDTH 9000 0
DWIDTH 9 0
BBX 8 7 1 0
BITMAP
FF
FF
FF
FF
FF
FF
FF
ENDCHAR
STARTCHAR char8783
ENCODING 9086
SWIDTH 9000 0
DWIDTH 9 0
BBX 8 7 1 0
BITMAP
FF
FF
FF
FF
FF
FF
FF
ENDCHAR
STARTCHAR char128
ENCODING 9249
SWIDTH 8000 0
DWIDTH 8 0
BBX 7 12 1 -5
BITMAP
FE
32
52
CA
0A
02
02
02
06
0A
06
02
ENDCHAR
STARTCHAR char129
ENCODING 9250
SWIDTH 8000 0
DWIDTH 8 0
BBX 7 10 1 -3
BITMAP
FE
92
A2
BA
86
82
86
8A
86
80
ENDCHAR
STARTCHAR char130
ENCODING 9251
SWIDTH 8000 0
DWIDTH 8 0
BBX 7 12 1 -5
BITMAP
FE
4A
8A
FA
0A
02
02
02
06
0A
06
02
ENDCHAR
STARTCHAR char70
ENCODING 9252
SWIDTH 8000 0
DWIDTH 8 0
BBX 7 12 1 -5
BITMAP
3C
10
10
9C
66
22
32
1C
04
0C
14
0C
ENDCHAR
STARTCHAR char74
ENCODING 9253
SWIDTH 8000 0
DWIDTH 8 0
BBX 7 14 1 -7
BITMAP
78
88
88
DE
22
32
1A
04
04
08
18
28
18
08
ENDCHAR
STARTCHAR char75
ENCODING 9254
SWIDTH 7000 0
DWIDTH 7 0
BBX 6 13 1 -6
BITMAP
FC
80
80
F8
8C
04
04
08
10
30
50
30
10
ENDCHAR
STARTCHAR char77
ENCODING 9255
SWIDTH 8000 0
DWIDTH 8 0
BBX 7 12 1 -5
BITMAP
7C
40
80
F8
0C
04
02
02
06
0A
06
02
ENDCHAR
STARTCHAR char70
ENCODING 9256
SWIDTH 8000 0
DWIDTH 8 0
BBX 8 14 1 -5
BITMAP
03
02
3C
10
10
9C
66
22
32
1C
04
0C
14
0C
ENDCHAR
STARTCHAR char71
ENCODING 9257
SWIDTH 8000 0
DWIDTH 8 0
BBX 8 15 1 -6
BITMAP
03
02
7C
10
10
7C
D6
92
92
6C
04
0C
14
0C
04
ENDCHAR
STARTCHAR char95
ENCODING 9258
SWIDTH 8000 0
DWIDTH 8 0
BBX 7 12 1 -5
BITMAP
3E
44
9C
A4
A6
9E
C2
02
06
0A
06
02
ENDCHAR
STARTCHAR char96
ENCODING 9259
SWIDTH 7000 0
DWIDTH 7 0
BBX 6 12 1 -5
BITMAP
FC
04
04
7C
04
04
FC
04
0C
14
0C
04
ENDCHAR
STARTCHAR char99
ENCODING 9260
SWIDTH 8000 0
DWIDTH 8 0
BBX 7 11 1 -4
BITMAP
7C
10
10
10
78
84
02
06
0A
06
02
ENDCHAR
STARTCHAR char100
ENCODING 9261
SWIDTH 9000 0
DWIDTH 9 0
BBX 8 12 1 -5
BITMAP
73
89
89
89
89
5D
03
01
03
05
03
01
ENDCHAR
STARTCHAR char101
ENCODING 9262
SWIDTH 8000 0
DWIDTH 8 0
BBX 7 12 1 -5
BITMAP
1E
22
22
32
2E
E2
12
02
06
0A
06
02
ENDCHAR
STARTCHAR char103
ENCODING 9263
SWIDTH 8000 0
DWIDTH 8 0
BBX 7 12 1 -5
BITMAP
F6
62
F2
8A
E6
32
0A
02
06
0A
06
02
ENDCHAR
STARTCHAR char104
ENCODING 9264
SWIDTH 7000 0
DWIDTH 7 0
BBX 6 13 1 -6
BITMAP
F8
40
80
D8
64
24
04
08
10
30
50
30
10
ENDCHAR
STARTCHAR char144
ENCODING 9280
SWIDTH 8000 0
DWIDTH 8 0
BBX 8 10 1 -3
BITMAP
FE
32
52
CA
0A
02
04
F9
42
3C
ENDCHAR
STARTCHAR char145
ENCODING 9281
SWIDTH 9000 0
DWIDTH 9 0
BBX 8 10 1 -3
BITMAP
FE
A2
A2
BA
8E
82
C4
B9
A2
9C
ENDCHAR
STARTCHAR char144
ENCODING 9282
SWIDTH 8000 0
DWIDTH 8 0
BBX 8 10 1 -3
BITMAP
FE
4A
8A
FA
0A
02
04
F9
42
3C
ENDCHAR
STARTCHAR char147
ENCODING 9283
SWIDTH 8000 0
DWIDTH 8 0
BBX 8 11 1 -4
BITMAP
E6
42
82
C2
FA
06
02
04
F9
42
3C
ENDCHAR
STARTCHAR char147
ENCODING 9284
SWIDTH 8000 0
DWIDTH 8 0
BBX 8 11 1 -4
BITMAP
E6
46
8A
D2
FA
06
02
04
F9
42
3C
ENDCHAR
STARTCHAR char147
ENCODING 9285
SWIDTH 8000 0
DWIDTH 8 0
BBX 8 11 1 -4
BITMAP
FE
42
82
C2
FA
06
02
04
F9
42
3C
ENDCHAR
STARTCHAR char150
ENCODING 9286
SWIDTH 8000 0
DWIDTH 8 0
BBX 8 11 1 -4
BITMAP
F6
22
72
9A
9E
66
02
04
F9
42
3C
ENDCHAR
STARTCHAR char147
ENCODING 9287
SWIDTH 8000 0
DWIDTH 8 0
BBX 8 15 1 -8
BITMAP
E6
46
8A
D2
FA
06
02
04
F9
42
3E
02
06
0A
06
ENDCHAR
STARTCHAR char152
ENCODING 9296
SWIDTH 8000 0
DWIDTH 8 0
BBX 7 9 1 -2
BITMAP
FE
32
52
CA
0A
02
F2
0E
02
ENDCHAR
STARTCHAR char153
ENCODING 9297
SWIDTH 9000 0
DWIDTH 9 0
BBX 7 11 2 -4
BITMAP
7E
92
A2
A2
BE
82
82
BA
86
82
80
ENDCHAR
STARTCHAR char152
ENCODING 9298
SWIDTH 8000 0
DWIDTH 8 0
BBX 7 9 1 -2
BITMAP
FE
4A
8A
FA
0A
02
F2
0E
02
ENDCHAR
STARTCHAR char75
ENCODING 9299
SWIDTH 7000 0
DWIDTH 7 0
BBX 6 11 1 -4
BITMAP
FC
80
80
F8
8C
04
04
08
10
F8
04
ENDCHAR
STARTCHAR char76
ENCODING 9300
SWIDTH 7000 0
DWIDTH 7 0
BBX 6 10 1 -3
BITMAP
7C
84
84
7C
84
84
F4
0C
F4
0C
ENDCHAR
STARTCHAR char77
ENCODING 9301
SWIDTH 8000 0
DWIDTH 8 0
BBX 7 10 1 -3
BITMAP
7C
40
80
F8
0C
04
02
7A
06
02
ENDCHAR
STARTCHAR char158
ENCODING 9302
SWIDTH 8000 0
DWIDTH 8 0
BBX 7 11 1 -4
BITMAP
E6
42
82
82
FA
06
02
F2
0A
06
02
ENDCHAR
STARTCHAR char158
ENCODING 9303
SWIDTH 8000 0
DWIDTH 8 0
BBX 7 11 1 -4
BITMAP
E6
46
8A
92
FA
06
02
F2
0A
06
02
ENDCHAR
STARTCHAR char158
ENCODING 9304
SWIDTH 8000 0
DWIDTH 8 0
BBX 7 11 1 -4
BITMAP
FE
42
82
82
FA
06
02
F2
0A
06
02
ENDCHAR
STARTCHAR char161
ENCODING 9305
SWIDTH 8000 0
DWIDTH 8 0
BBX 7 11 1 -4
BITMAP
F6
22
72
9A
9E
66
02
F2
0A
06
02
ENDCHAR
STARTCHAR char101
ENCODING 9306
SWIDTH 8000 0
DWIDTH 8 0
BBX 7 12 1 -5
BITMAP
1E
22
22
32
2E
E2
12
02
02
7A
06
02
ENDCHAR
STARTCHAR char103
ENCODING 9307
SWIDTH 8000 0
DWIDTH 8 0
BBX 7 11 1 -4
BITMAP
F6
62
F2
8A
E6
32
0A
02
FA
06
02
ENDCHAR
STARTCHAR char104
ENCODING 9308
SWIDTH 7000 0
DWIDTH 7 0
BBX 6 11 1 -4
BITMAP
F8
40
80
D8
64
24
04
08
10
F8
04
ENDCHAR
STARTCHAR char72
ENCODING 9309
SWIDTH 8000 0
DWIDTH 8 0
BBX 7 11 1 -4
BITMAP
FE
40
80
FC
80
80
FC
02
FA
06
02
ENDCHAR
STARTCHAR char72
ENCODING 9310
SWIDTH 9000 0
DWIDTH 9 0
BBX 9 13 1 -4
BITMAP
0180
0100
FE00
4000
8000
FC00
8000
8000
FC00
0200
FA00
0600
0200
ENDCHAR
STARTCHAR char152
ENCODING 9311
SWIDTH 8000 0
DWIDTH 8 0
BBX 7 13 1 -6
BITMAP
FE
4A
8A
FA
0A
02
F2
0E
02
06
0A
06
02
ENDCHAR
STARTCHAR char166
ENCODING 9312
SWIDTH 8000 0
DWIDTH 8 0
BBX 7 11 1 -4
BITMAP
FE
32
52
8A
0A
02
72
92
92
BA
06
ENDCHAR
STARTCHAR char166
ENCODING 9313
SWIDTH 8000 0
DWIDTH 8 0
BBX 7 11 1 -4
BITMAP
FE
4A
8A
FA
0A
02
72
92
92
BA
06
ENDCHAR
STARTCHAR char168
ENCODING 9314
SWIDTH 8000 0
DWIDTH 8 0
BBX 7 11 1 -4
BITMAP
FE
42
82
82
FA
06
62
92
92
BE
02
ENDCHAR
STARTCHAR char169
ENCODING 9315
SWIDTH 7000 0
DWIDTH 7 0
BBX 6 11 1 -4
BITMAP
FC
04
7C
04
FC
04
64
94
94
BC
04
ENDCHAR
STARTCHAR char170
ENCODING 9316
SWIDTH 9000 0
DWIDTH 9 0
BBX 8 12 1 -5
BITMAP
7C
10
10
7C
82
01
66
92
92
BA
06
02
ENDCHAR
STARTCHAR char171
ENCODING 9317
SWIDTH 8000 0
DWIDTH 8 0
BBX 7 11 1 -4
BITMAP
FA
72
CA
F6
0A
62
92
92
BA
06
02
ENDCHAR
STARTCHAR char172
ENCODING 9505
SWIDTH 8000 0
DWIDTH 8 0
BBX 7 11 1 -4
BITMAP
7C
10
FE
32
52
CA
0A
02
02
02
02
ENDCHAR
STARTCHAR char172
ENCODING 9506
SWIDTH 8000 0
DWIDTH 8 0
BBX 7 11 1 -4
BITMAP
7C
10
FE
4A
8A
FA
0A
02
02
02
02
ENDCHAR
STARTCHAR char174
ENCODING 9507
SWIDTH 7000 0
DWIDTH 7 0
BBX 6 8 1 -1
BITMAP
F8
20
FC
80
80
80
F8
04
ENDCHAR
STARTCHAR char175
ENCODING 9508
SWIDTH 8000 0
DWIDTH 8 0
BBX 7 10 1 -3
BITMAP
7C
10
FE
80
80
FC
80
80
FC
02
ENDCHAR
STARTCHAR char10
ENCODING 9509
SWIDTH 8000 0
DWIDTH 8 0
BBX 7 11 1 -4
BITMAP
7C
10
78
84
3A
44
6E
32
0A
04
08
ENDCHAR
STARTCHAR char177
ENCODING 9510
SWIDTH 7000 0
DWIDTH 7 0
BBX 6 11 1 -4
BITMAP
F8
20
FC
80
B8
C4
84
04
08
10
20
ENDCHAR
STARTCHAR char178
ENCODING 9511
SWIDTH 8000 0
DWIDTH 8 0
BBX 7 11 1 -4
BITMAP
FC
20
FC
40
80
F8
04
04
02
02
02
ENDCHAR
STARTCHAR char179
ENCODING 9512
SWIDTH 7000 0
DWIDTH 7 0
BBX 6 11 1 -4
BITMAP
7C
10
7C
10
70
98
9C
74
04
04
04
ENDCHAR
STARTCHAR char180
ENCODING 9513
SWIDTH 8000 0
DWIDTH 8 0
BBX 7 9 1 -2
BITMAP
7C
10
FE
42
82
E2
FA
06
02
ENDCHAR
STARTCHAR char181
ENCODING 9514
SWIDTH 8000 0
DWIDTH 8 0
BBX 7 9 1 -2
BITMAP
F0
20
F6
22
62
92
9A
66
02
ENDCHAR
STARTCHAR char182
ENCODING 9515
SWIDTH 10000 0
DWIDTH 10 0
BBX 10 9 1 -2
BITMAP
3EC0
0880
3F00
0800
9C00
7200
2100
1100
0E00
ENDCHAR
STARTCHAR char175
ENCODING 9516
SWIDTH 9000 0
DWIDTH 9 0
BBX 9 10 1 -3
BITMAP
7D80
1100
FE00
8000
8000
FC00
8000
8000
FC00
0200
ENDCHAR
STARTCHAR char172
ENCODING 9517
SWIDTH 8000 0
DWIDTH 8 0
BBX 7 12 1 -5
BITMAP
7C
10
FE
4A
8A
FA
0A
02
06
0A
06
02
ENDCHAR
STARTCHAR char182
ENCODING 9518
SWIDTH 10000 0
DWIDTH 10 0
BBX 10 14 1 -7
BITMAP
3EC0
0880
3F00
0800
9C00
7200
2100
1100
0E00
0200
0600
0A00
0600
0200
ENDCHAR
STARTCHAR char186
ENCODING 9520
SWIDTH 8000 0
DWIDTH 8 0
BBX 8 11 1 -4
BITMAP
7C
10
FE
32
4A
CA
02
04
F9
42
3C
ENDCHAR
STARTCHAR char186
ENCODING 9521
SWIDTH 8000 0
DWIDTH 8 0
BBX 8 11 1 -4
BITMAP
7C
10
FE
4A
8A
FA
0A
04
F9
42
3C
ENDCHAR
STARTCHAR char188
ENCODING 9522
SWIDTH 8000 0
DWIDTH 8 0
BBX 8 12 1 -5
BITMAP
F8
20
F6
22
72
9A
9E
66
04
F9
42
3C
ENDCHAR
STARTCHAR char189
ENCODING 9536
SWIDTH 8000 0
DWIDTH 8 0
BBX 7 12 1 -5
BITMAP
66
92
92
92
BA
06
FE
32
4A
CA
02
02
ENDCHAR
STARTCHAR char189
ENCODING 9537
SWIDTH 8000 0
DWIDTH 8 0
BBX 7 12 1 -5
BITMAP
66
92
92
92
BA
06
FE
4A
8A
FA
0A
02
ENDCHAR
STARTCHAR char191
ENCODING 9538
SWIDTH 8000 0
DWIDTH 8 0
BBX 7 12 1 -5
BITMAP
66
92
92
92
BA
06
7E
40
40
40
7C
02
ENDCHAR
STARTCHAR char192
ENCODING 9539
SWIDTH 8000 0
DWIDTH 8 0
BBX 7 12 1 -5
BITMAP
66
92
92
92
BA
06
7C
10
BC
62
22
1C
ENDCHAR
STARTCHAR char193
ENCODING 9540
SWIDTH 8000 0
DWIDTH 8 0
BBX 7 12 1 -5
BITMAP
66
92
92
92
7A
06
7E
40
7C
40
7C
02
ENDCHAR
STARTCHAR char194
ENCODING 9541
SWIDTH 8000 0
DWIDTH 8 0
BBX 7 13 1 -6
BITMAP
66
92
92
BA
06
7E
40
5C
22
22
04
08
10
ENDCHAR
STARTCHAR char195
ENCODING 9542
SWIDTH 8000 0
DWIDTH 8 0
BBX 7 12 1 -5
BITMAP
76
92
92
BA
06
7E
40
78
04
02
02
02
ENDCHAR
STARTCHAR char196
ENCODING 9543
SWIDTH 8000 0
DWIDTH 8 0
BBX 7 12 1 -5
BITMAP
66
92
92
92
BA
06
F2
42
82
E2
FA
06
ENDCHAR
STARTCHAR char196
ENCODING 9544
SWIDTH 8000 0
DWIDTH 8 0
BBX 7 12 1 -5
BITMAP
66
92
92
92
BA
06
FE
42
82
E2
FA
06
ENDCHAR
STARTCHAR char198
ENCODING 9545
SWIDTH 8000 0
DWIDTH 8 0
BBX 7 12 1 -5
BITMAP
66
92
92
BA
06
7C
20
5C
72
12
04
08
ENDCHAR
STARTCHAR char199
ENCODING 9552
SWIDTH 8000 0
DWIDTH 8 0
BBX 7 12 1 -5
BITMAP
F6
72
FA
E6
12
FE
32
4A
CA
02
02
02
ENDCHAR
STARTCHAR char199
ENCODING 9553
SWIDTH 8000 0
DWIDTH 8 0
BBX 7 12 1 -5
BITMAP
F6
72
FA
E6
12
FE
4A
8A
FA
0A
02
02
ENDCHAR
STARTCHAR char201
ENCODING 9554
SWIDTH 7000 0
DWIDTH 7 0
BBX 6 10 1 -3
BITMAP
F4
74
CC
EC
14
F8
80
80
F8
04
ENDCHAR
STARTCHAR char202
ENCODING 9555
SWIDTH 9000 0
DWIDTH 9 0
BBX 8 12 1 -5
BITMAP
FA
72
DA
EE
12
3C
44
6E
13
19
02
04
ENDCHAR
STARTCHAR char203
ENCODING 9556
SWIDTH 8000 0
DWIDTH 8 0
BBX 7 12 1 -5
BITMAP
FA
72
FA
E6
12
7C
40
5C
22
22
04
08
ENDCHAR
STARTCHAR char204
ENCODING 9557
SWIDTH 8000 0
DWIDTH 8 0
BBX 7 11 1 -4
BITMAP
FA
72
FA
E6
12
7E
40
78
04
02
02
ENDCHAR
STARTCHAR char205
ENCODING 9558
SWIDTH 8000 0
DWIDTH 8 0
BBX 7 12 1 -5
BITMAP
FA
72
EE
E6
12
7C
10
38
4C
4C
32
02
ENDCHAR
STARTCHAR char206
ENCODING 9559
SWIDTH 8000 0
DWIDTH 8 0
BBX 7 11 1 -4
BITMAP
FA
72
FA
E6
12
F2
42
82
F2
FE
02
ENDCHAR
STARTCHAR char206
ENCODING 9560
SWIDTH 8000 0
DWIDTH 8 0
BBX 7 11 1 -4
BITMAP
FA
72
FA
E6
12
FE
42
82
F2
FE
02
ENDCHAR
STARTCHAR char208
ENCODING 9561
SWIDTH 8000 0
DWIDTH 8 0
BBX 7 11 1 -4
BITMAP
FA
72
FA
E6
12
F6
22
72
9A
96
62
ENDCHAR
STARTCHAR char209
ENCODING 9562
SWIDTH 9000 0
DWIDTH 9 0
BBX 9 11 1 -4
BITMAP
F400
7400
CC00
E580
1500
3E00
1000
BC00
6200
2200
1C00
ENDCHAR
STARTCHAR char199
ENCODING 9568
SWIDTH 8000 0
DWIDTH 8 0
BBX 8 14 1 -7
BITMAP
F6
72
FA
E6
12
FE
32
4A
CA
02
04
F9
42
3C
ENDCHAR
STARTCHAR char199
ENCODING 9569
SWIDTH 8000 0
DWIDTH 8 0
BBX 8 15 1 -8
BITMAP
F6
72
FA
E6
12
FE
4A
8A
FA
0A
02
04
F9
42
3C
ENDCHAR
STARTCHAR char206
ENCODING 9570
SWIDTH 8000 0
DWIDTH 8 0
BBX 8 14 1 -7
BITMAP
FA
72
FA
E6
12
F2
42
C2
FE
02
04
F9
42
3C
ENDCHAR
STARTCHAR char206
ENCODING 9571
SWIDTH 8000 0
DWIDTH 8 0
BBX 8 14 1 -7
BITMAP
FA
72
FA
E6
12
FE
42
C2
FE
02
04
F9
42
3C
ENDCHAR
STARTCHAR char208
ENCODING 9572
SWIDTH 8000 0
DWIDTH 8 0
BBX 8 14 1 -7
BITMAP
FA
72
FA
E6
12
F6
22
72
9A
66
04
F9
42
3C
ENDCHAR
STARTCHAR char199
ENCODING 9584
SWIDTH 8000 0
DWIDTH 8 0
BBX 7 12 1 -5
BITMAP
F6
72
FA
E6
12
FE
32
4A
CA
02
FA
06
ENDCHAR
STARTCHAR char199
ENCODING 9585
SWIDTH 8000 0
DWIDTH 8 0
BBX 7 13 1 -6
BITMAP
F6
72
FA
E6
12
FE
4A
8A
FA
0A
02
FA
06
ENDCHAR
STARTCHAR char205
ENCODING 9586
SWIDTH 8000 0
DWIDTH 8 0
BBX 7 14 1 -7
BITMAP
FA
72
EE
E6
12
7C
10
38
4C
4C
32
02
7A
06
ENDCHAR
STARTCHAR char206
ENCODING 9587
SWIDTH 8000 0
DWIDTH 8 0
BBX 7 13 1 -6
BITMAP
FA
72
FA
E6
12
F2
42
C2
FE
02
FA
06
02
ENDCHAR
STARTCHAR char206
ENCODING 9588
SWIDTH 8000 0
DWIDTH 8 0
BBX 7 13 1 -6
BITMAP
FA
72
FA
E6
12
FE
42
C2
FE
02
FA
06
02
ENDCHAR
STARTCHAR char208
ENCODING 9589
SWIDTH 8000 0
DWIDTH 8 0
BBX 7 13 1 -6
BITMAP
FA
72
FA
E6
12
F6
22
72
9A
66
02
FA
06
ENDCHAR
ENDFONT
